<svg width="35" height="34" viewBox="0 0 35 34" fill="none" xmlns="http://www.w3.org/2000/svg">
<path fill-rule="evenodd" clip-rule="evenodd" d="M17.0039 0C7.62153 0 0.00390625 7.61762 0.00390625 17C0.00390625 26.3824 7.62153 34 17.0039 34C26.3863 34 34.0039 26.3824 34.0039 17C34.0039 7.61762 26.3863 0 17.0039 0ZM17.0039 3.00833C24.7268 3.00833 30.9958 9.27768 30.9958 17.0003C30.9958 24.7231 24.7262 30.9922 17.0039 30.9922C9.28172 30.9922 3.01196 24.7229 3.01196 17.0003C3.01196 9.27741 9.28159 3.00833 17.0039 3.00833Z" fill="#0C0C0C"/>
<path fill-rule="evenodd" clip-rule="evenodd" d="M14.5201 16.1541C14.2266 19.5258 13.4535 22.7958 12.2478 25.975C11.9535 26.7513 12.3448 27.6201 13.1208 27.9145C13.8972 28.2088 14.766 27.8177 15.0603 27.0414C15.9138 24.7908 16.566 22.4979 17.004 20.1605C17.4419 22.4981 18.0941 24.791 18.9476 27.0414C19.242 27.8178 20.1108 28.2088 20.8871 27.9145C21.6635 27.6201 22.0545 26.7513 21.7601 25.975C20.5553 22.7975 19.7825 19.5288 19.4886 16.1602C21.2903 16.0719 23.0927 15.8829 24.8949 15.5902C25.7142 15.4568 26.2715 14.6834 26.1382 13.8641C26.0052 13.0451 25.232 12.4878 24.4125 12.6208C19.4705 13.424 14.5288 13.3922 9.58671 12.6193C8.76666 12.4912 7.99667 13.053 7.86829 13.8731C7.74022 14.6931 8.30204 15.4631 9.12211 15.5912C10.9211 15.8727 12.7204 16.0616 14.5203 16.1538L14.5201 16.1541Z" fill="#0C0C0C"/>
<path fill-rule="evenodd" clip-rule="evenodd" d="M19.7185 9.24538C19.7185 10.7445 18.5032 11.9601 17.0038 11.9601C15.5044 11.9601 14.2891 10.7445 14.2891 9.24538C14.2891 7.74594 15.5044 6.53064 17.0038 6.53064C18.5032 6.53064 19.7185 7.746 19.7185 9.24538Z" fill="#0C0C0C"/>
</svg>
