<svg width="40" height="34" viewBox="0 0 40 34" fill="none" xmlns="http://www.w3.org/2000/svg">
<path d="M4.9788 33.4905H5.12878C5.06061 33.4588 4.99688 33.4316 4.92871 33.4043C4.94678 33.436 4.96041 33.4633 4.9788 33.4905Z" fill="black"/>
<path d="M27.7285 27.2634H33.183V32.718H27.7285V27.2634Z" fill="black"/>
<path d="M30.5005 4.53592C31.7279 4.49058 32.7279 3.49053 32.7279 2.26316C32.7279 1.35414 32.1369 0.535791 31.3189 0.172069C30.5009 -0.191653 29.5008 0.0357275 28.8645 0.717432C28.2281 1.39914 28.0464 2.35382 28.4098 3.21754C28.7278 4.0359 29.5915 4.53592 30.5005 4.53592Z" fill="black"/>
<path d="M39.0908 13.1723L39.9998 12.263L33.1815 5.4447H20.4541V6.80844L27.7268 8.0358V13.6267L27.2724 26.8087H29.0904L30.4542 16.354L31.8179 26.8087H33.6359L33.1813 13.6267V9.21756L39.0908 13.1723Z" fill="black"/>
<path d="M9.59231 4.53592C10.8197 4.49058 11.8197 3.49053 11.8197 2.26316C11.8197 1.35414 11.2287 0.535791 10.4107 0.172069C9.59265 -0.191653 8.59263 0.0357275 7.95625 0.717432C7.3199 1.39913 7.13822 2.35382 7.50157 3.21754C7.8196 4.0359 8.68297 4.53592 9.59231 4.53592Z" fill="black"/>
<path d="M11.3638 5.44495H6.81826L0 11.8088L0.909021 12.7178L6.81826 9.03606V16.3543L4.0908 32.7182H5.90884L9.54533 18.6271L13.1818 32.7182H14.9999L12.2727 16.3543V8.03605L19.5454 6.80868V5.44495H11.3638Z" fill="black"/>
</svg>
