<svg width="35" height="34" viewBox="0 0 35 34" fill="none" xmlns="http://www.w3.org/2000/svg">
<path d="M20.4844 0C19.6119 0.0422149 18.5703 0.584134 17.2564 1.32599C15.9424 2.06785 14.4363 3.03758 13.0054 4.00098C10.1704 5.90946 7.68397 7.76548 7.63697 7.80058C6.51116 8.45349 6.12575 9.90965 6.77466 11.0388C7.09933 11.6035 7.62416 11.9832 8.20975 12.1406C8.42936 12.1997 8.65657 12.2274 8.88519 12.2215C9.26631 12.2118 9.64982 12.1091 10.0015 11.9051L13.8998 9.64641C13.8471 9.44576 13.8177 9.23635 13.8177 9.02287C13.8177 7.55578 15.056 6.37709 16.5155 6.37709H22.3168C22.3168 6.37709 22.848 6.37614 22.848 6.90738C22.848 7.43863 22.3168 7.43958 22.3168 7.43958H16.5155C15.609 7.43958 14.8793 8.14586 14.8793 9.025C14.8793 9.90414 15.6008 10.4784 16.5155 10.6114L23.9104 11.6874C25.7897 11.6874 26.8408 10.3849 28.1604 10.0937V1.06371H26.7668C26.4794 1.06371 25.3209 0.813268 24.1075 0.545988C22.8945 0.278944 21.558 0.000273212 20.4844 0.000273212L20.4844 0ZM30.1877 0.532193C29.6531 0.532193 29.2226 0.980432 29.2226 1.53774V9.61936C29.2226 10.1765 29.6531 10.6247 30.1877 10.6247H33.0391C33.5734 10.6247 34.0039 10.1765 34.0039 9.61936V1.53774C34.0039 0.980401 33.5735 0.532193 33.0389 0.532193H30.1877ZM10.6293 13.2809C9.89577 13.2809 9.3012 13.8755 9.3012 14.609C9.3012 15.3425 9.89577 15.9371 10.6293 15.9371C11.3629 15.9371 11.9574 15.3425 11.9574 14.609C11.9574 13.8755 11.3629 13.2809 10.6293 13.2809ZM17.0043 13.2809C16.1242 13.2809 15.4105 13.9945 15.4105 14.8746C15.4105 15.7547 16.1242 16.4684 17.0043 16.4684C17.8844 16.4684 18.598 15.7547 18.598 14.8746C18.598 13.9945 17.8844 13.2809 17.0043 13.2809ZM23.3792 13.2809C22.6457 13.2809 22.0511 13.8755 22.0511 14.609C22.0511 15.3425 22.6457 15.9371 23.3792 15.9371C24.1128 15.9371 24.7073 15.3425 24.7073 14.609C24.7073 13.8755 24.1128 13.2809 23.3792 13.2809ZM9.54375 16.6998C8.61714 17.1122 7.974 18.0367 7.974 19.1267L7.97376 19.6558C7.97376 20.2532 8.43812 20.7183 9.03625 20.7183H12.2249C12.4225 20.7183 12.6027 20.6669 12.7583 20.5772C12.7481 20.3317 12.7541 20.078 12.7541 19.8249C12.7541 19.2277 12.8767 18.6578 13.0975 18.1411C12.842 17.4991 12.3443 16.9806 11.7155 16.6998C11.3968 16.891 11.0249 17.0018 10.629 17.0018C10.2337 17.0018 9.86201 16.8905 9.54375 16.6998ZM20.9136 18.1432C21.1342 18.6595 21.2561 19.2287 21.2561 19.8251C21.2582 20.0718 21.2547 20.3402 21.254 20.5774C21.4091 20.6668 21.5886 20.7183 21.7862 20.7183H24.9746C25.5727 20.7183 26.0381 20.2532 26.0381 19.6558V19.1267C26.0381 18.0362 25.3942 17.112 24.4671 16.6998C24.1493 16.8907 23.7784 17.0017 23.3828 17.0017C22.987 17.0017 22.6149 16.8907 22.2959 16.6998C21.6662 16.9811 21.1687 17.5005 20.9133 18.1431L20.9136 18.1432ZM15.9726 17.3223C14.718 17.7502 13.8165 18.9374 13.8165 20.3561V20.9756C13.8165 21.2652 13.9076 21.5289 14.0593 21.7454L17.9638 22.313H18.8643C19.608 22.313 20.1934 21.7257 20.1934 20.9756V20.3562C20.1934 18.9375 19.2931 17.7502 18.0383 17.3223C17.7203 17.4578 17.3709 17.533 17.0048 17.533C16.6388 17.533 16.2902 17.4575 15.9724 17.3223L15.9726 17.3223ZM25.1227 21.7777C24.7416 21.7874 24.3581 21.8901 24.0064 22.094L20.1081 24.3528C20.1608 24.5534 20.1902 24.7628 20.1902 24.9763C20.1902 26.4434 18.9519 27.6221 17.4924 27.6221L11.6912 27.6223C11.6912 27.6223 11.1599 27.6233 11.1599 27.092C11.1599 26.5608 11.6912 26.5598 11.6912 26.5598H17.4924C18.3989 26.5598 19.1286 25.8536 19.1286 24.9744C19.1286 24.0955 18.4072 23.5211 17.4924 23.388L10.0975 22.312C8.21822 22.312 7.16709 23.6145 5.84753 23.9057V32.9357H7.2411C7.52854 32.9357 8.68706 33.1862 9.90042 33.4534C11.1135 33.7205 12.4499 33.9991 13.5236 33.9991C14.3961 33.9569 15.4377 33.415 16.7516 32.6732C18.0655 31.9313 19.5717 30.9616 21.0026 29.9982C23.8376 28.0897 26.324 26.2337 26.371 26.1986C27.4968 25.5457 27.8822 24.0895 27.2333 22.9603C26.9089 22.3957 26.3836 22.0159 25.7982 21.8585C25.5786 21.7994 25.3514 21.7717 25.1227 21.7777ZM0.968953 23.3745C0.434386 23.3745 0.00390625 23.8227 0.00390625 24.3799V32.4615C0.00390625 33.0186 0.434356 33.4669 0.968953 33.4669L3.82014 33.4671C4.3547 33.4671 4.78518 33.0188 4.78518 32.4615V24.3799C4.78518 23.8228 4.35473 23.3746 3.82014 23.3746L0.968953 23.3745Z" fill="black"/>
</svg>
