<svg width="35" height="28" viewBox="0 0 35 28" fill="none" xmlns="http://www.w3.org/2000/svg">
<path d="M32.9667 0.000499256H14.8944C14.3218 0.000499256 13.8567 0.465803 13.8567 1.03819V8.58918H15.4671C15.6101 8.58918 15.7891 8.58918 15.9324 8.62488L15.9321 2.07591H31.9288V16.7485L15.9321 16.7482V14.6009C15.6101 14.7799 15.2165 14.8872 14.8585 14.8872H13.8564V17.7859C13.8564 18.3585 14.3217 18.8235 14.8941 18.8235H22.9104V21.7222L19.3317 25.3009C18.938 25.6945 18.938 26.3745 19.3317 26.7682C19.5464 26.9829 19.797 27.0545 20.0474 27.0545C20.298 27.0545 20.5841 26.9472 20.763 26.7682L23.9123 23.6189L27.0616 26.7682C27.4553 27.1619 28.1353 27.1619 28.5289 26.7682C28.9226 26.3745 28.9226 25.6945 28.5289 25.3009L24.9503 21.7222V18.8235H32.9665C33.5391 18.8235 34.0042 18.3582 34.0042 17.7859V1.03769C34.0042 0.465291 33.5389 0 32.9665 0L32.9667 0.000499256Z" fill="black"/>
<path d="M15.3236 12.7406L15.932 11.1302C16.075 10.7723 15.7889 10.4146 15.431 10.4146H3.97922C2.15416 10.4146 0.615202 11.7745 0.436269 13.5996L0.00690522 17.9296C-0.0287914 18.359 0.257533 18.7527 0.686916 18.8243C1.15222 18.9316 1.79624 19.0033 2.44053 19.0749L2.83419 25.9818C2.86989 26.5544 3.3352 27.0194 3.94352 27.0194H7.27155C7.8442 27.0194 8.34522 26.5541 8.38088 25.9818L8.95352 14.1364C8.95352 13.5637 9.45452 13.0627 10.0272 13.0627H14.8583C15.0732 13.0627 15.2519 12.9197 15.3236 12.7407L15.3236 12.7406Z" fill="black"/>
<path d="M9.23958 5.76218C9.23958 7.77819 7.60528 9.41249 5.58927 9.41249C3.57327 9.41249 1.93896 7.77819 1.93896 5.76218C1.93896 3.74618 3.57327 2.11188 5.58927 2.11188C7.60528 2.11188 9.23958 3.74618 9.23958 5.76218Z" fill="black"/>
<path d="M27.5625 10.1281C27.5625 10.5574 27.8845 10.8797 28.3141 10.8797H29.2445C29.6739 10.8797 29.9962 10.5577 29.9962 10.1281C29.9962 9.69869 29.6742 9.3764 29.2445 9.3764H28.3141C27.8845 9.3764 27.5625 9.69843 27.5625 10.1281Z" fill="black"/>
<path d="M27.1688 5.8337L26.5247 6.47773C26.3817 6.62077 26.3101 6.79976 26.3101 7.01443C26.3101 7.22911 26.3817 7.4081 26.5247 7.55113C26.6678 7.69417 26.8468 7.76581 27.0614 7.76581C27.2761 7.76581 27.4551 7.69417 27.5981 7.55113L28.2422 6.9071C28.3852 6.76406 28.4569 6.58507 28.4569 6.3704C28.4569 6.15572 28.3852 5.97673 28.2422 5.8337C27.9204 5.54738 27.4551 5.54738 27.1688 5.8337Z" fill="black"/>
<path d="M24.6639 5.72629V4.7959C24.6639 4.36653 24.3419 4.04425 23.9123 4.04425C23.4829 4.04425 23.1606 4.36627 23.1606 4.7959V5.72629C23.1606 6.15565 23.4827 6.47794 23.9123 6.47794C24.3419 6.47769 24.6639 6.15567 24.6639 5.72629Z" fill="black"/>
<path d="M20.2982 7.55143C20.4412 7.69447 20.6202 7.76612 20.8349 7.76612C21.0495 7.76612 21.2285 7.69447 21.3716 7.55143C21.5146 7.4084 21.5862 7.22941 21.5862 7.01474C21.5862 6.80006 21.5146 6.62107 21.3716 6.47804L20.7275 5.834C20.5845 5.69097 20.4055 5.61932 20.1908 5.61932C19.9762 5.61932 19.7972 5.69097 19.6541 5.834C19.5111 5.97704 19.4395 6.15603 19.4395 6.3707C19.4395 6.58538 19.5111 6.76437 19.6541 6.9074L20.2982 7.55143Z" fill="black"/>
<path d="M17.8643 10.1281C17.8643 10.5574 18.1863 10.8797 18.6159 10.8797H19.5463C19.9757 10.8797 20.2979 10.5577 20.2979 10.1281C20.2979 9.69869 19.9759 9.3764 19.5463 9.3764H18.6159C18.222 9.3764 17.8643 9.69843 17.8643 10.1281Z" fill="black"/>
<path d="M22.6953 14.2078C22.6953 14.4225 22.8743 14.6372 23.1247 14.6372H24.8067C25.0213 14.6372 25.2003 14.4582 25.2003 14.2078V12.8838H22.731L22.7312 14.2078H22.6953Z" fill="black"/>
<path d="M21.5866 9.77021C21.5149 10.5932 21.8372 11.3449 22.3739 11.8102C22.4812 11.9175 22.6245 11.9532 22.7675 11.9532H24.9505C25.0936 11.9532 25.2369 11.9175 25.3442 11.8102C25.8452 11.3808 26.1672 10.7365 26.1672 10.0566C26.1672 8.62523 24.8789 7.51558 23.4116 7.80194C22.4812 7.94523 21.7299 8.80397 21.5865 9.77027L21.5866 9.77021Z" fill="black"/>
</svg>
