<svg width="34" height="34" viewBox="0 0 34 34" fill="none" xmlns="http://www.w3.org/2000/svg">
<path d="M33.8361 21.2774H31.3364C31.2443 21.2774 31.1724 21.3413 31.1724 21.4214V31.4002C31.1724 31.4722 31.2443 31.536 31.3364 31.536H33.84C33.924 31.536 33.9999 31.4722 33.9999 31.4002V21.4178C33.996 21.3419 33.924 21.2777 33.8361 21.2777L33.8361 21.2774Z" fill="black"/>
<path d="M29.8956 29.932C29.9196 29.9401 29.9436 29.9479 29.9715 29.9599C30.0875 29.9959 30.1835 30.0439 30.2834 30.0958V22.0089C30.1874 21.9609 30.0555 21.897 29.8995 21.825C29.4557 21.625 28.7956 21.365 28.0116 21.1811C27.3878 21.0372 26.7919 20.9571 26.2157 20.9451C25.0398 20.9211 23.9679 21.173 23.0122 21.7051C22.9882 21.7171 22.9642 21.733 22.9402 21.745C22.0963 22.205 21.2086 22.525 20.3325 22.7409C19.8005 22.8729 19.2726 22.9689 18.7688 23.033C18.0088 23.1329 17.2929 23.165 16.6692 23.165C16.2493 23.165 15.8732 23.153 15.5493 23.129C15.4692 23.1209 15.3973 23.117 15.3175 23.117C15.0976 23.105 14.8814 23.093 14.6616 23.0849C14.2336 23.069 13.8095 23.057 13.3858 23.0609C13.0859 23.0609 12.7899 23.0648 12.4939 23.0768L12.006 23.0888C11.1941 23.1209 10.5181 23.6487 10.2902 24.3847C10.2743 24.4366 10.2581 24.4888 10.2461 24.5446C10.2138 24.6724 10.1979 24.8085 10.1979 24.9525C10.1979 25.0604 10.2099 25.1723 10.23 25.2806C10.298 25.5925 10.454 25.8846 10.6939 26.1086C11.0178 26.4127 11.4299 26.5726 11.8776 26.5525L12.7215 26.5165L13.3855 26.4886L14.6613 26.4367L15.6051 26.3968L18.4368 26.2807C18.6806 26.2727 18.8887 26.4646 18.9007 26.7087C18.9088 26.9567 18.7169 27.1646 18.4728 27.1766L11.9175 27.4447H11.8095C11.1656 27.4447 10.5535 27.2008 10.0856 26.7489C10.0416 26.7129 10.0056 26.6688 9.96958 26.6328L7.69778 25.073L5.99013 23.9013L2.87443 21.7615C2.6504 21.6094 2.40238 21.5135 2.15044 21.4775C2.08655 21.4694 2.02238 21.4616 1.9585 21.4616H1.95041C1.56653 21.4616 1.20243 21.5974 0.910603 21.8334C0.55071 22.1255 0.338685 22.5454 0.306603 23.0013C0.28261 23.4653 0.438566 23.9013 0.758557 24.2372C2.63448 26.2244 5.58613 28.9962 8.99758 30.9479C13.1651 33.3238 16.8209 33.7796 19.8727 32.2999C22.5164 31.0199 24.7843 30.1961 26.6038 29.8683C27.9596 29.62 29.0675 29.6401 29.8955 29.9319L29.8956 29.932Z" fill="black"/>
<path d="M1.45193 20.2375C1.61598 20.2096 1.78392 20.1935 1.95187 20.1935H1.98396C2.32794 20.2016 2.66775 20.2693 2.98777 20.3974C1.99988 18.6937 1.39196 16.7418 1.29211 14.6582H5.99941C6.0513 16.714 6.35149 18.6898 6.87545 20.4736H3.16382C3.30777 20.5417 3.44783 20.6215 3.58369 20.7135L5.09158 21.7494H7.29918C7.57119 22.4734 7.88309 23.1572 8.23514 23.7932C8.27113 23.8571 8.30711 23.9213 8.3431 23.9813L8.97501 24.4131C8.999 24.2773 9.03108 24.1411 9.07098 24.0053C9.15105 23.7453 9.26683 23.5014 9.41106 23.2774C9.39097 23.2414 9.37117 23.2094 9.35498 23.1734C9.10696 22.7253 8.87903 22.2455 8.6751 21.7455H13.3905V21.7854H13.4025C13.8103 21.7854 14.2305 21.7935 14.6624 21.8094V21.7414H18.79C19.9578 21.5734 21.2336 21.2333 22.3894 20.5894C22.4653 20.5495 22.5414 20.5054 22.6173 20.4695H21.1655C21.6894 18.6856 21.9893 16.7098 22.0415 14.654H26.7488C26.661 16.4537 26.1928 18.1575 25.4329 19.6894C25.6368 19.6735 25.8449 19.6654 26.0567 19.6654C26.3128 19.6654 26.5725 19.6774 26.8406 19.7014C26.8727 19.6255 26.9087 19.5494 26.9405 19.4735C27.6723 17.7458 28.0445 15.91 28.0445 14.0182C28.0445 12.1264 27.6726 10.2907 26.9405 8.56291C26.2327 6.89511 25.2248 5.39529 23.9369 4.10751C22.6491 2.81974 21.1493 1.80786 19.4815 1.10394C17.7538 0.37217 15.918 0 14.0263 0C12.1345 0 10.2988 0.371884 8.57098 1.10394C6.90318 1.81173 5.40336 2.81967 4.11558 4.10751C2.82781 5.39536 1.81593 6.89511 1.11201 8.56291C0.371885 10.2906 0 12.1264 0 14.0182C0 15.91 0.371884 17.7457 1.10394 19.4735C1.21191 19.7335 1.32796 19.9857 1.45184 20.2376L1.45193 20.2375ZM26.7489 13.3824H22.0416C21.9897 11.3265 21.6896 9.35076 21.1656 7.5669H25.0091C26.021 9.28684 26.6448 11.2665 26.7489 13.3824H26.7489ZM24.1494 6.29113H20.7376C20.4656 5.56714 20.1537 4.88337 19.8017 4.2473C19.3098 3.3554 18.7538 2.58764 18.1498 1.9635C20.5538 2.78761 22.6333 4.31143 24.1494 6.29113ZM14.6541 1.33186C16.1539 1.60387 17.5659 2.83561 18.6857 4.86351C18.9337 5.31156 19.1616 5.7914 19.3656 6.29134L14.654 6.29106L14.6541 1.33186ZM14.6541 7.5669H19.8295C20.3856 9.32677 20.7094 11.3064 20.7614 13.3824H14.6541V7.5669ZM14.6541 14.6542H20.7614C20.7053 16.7298 20.3853 18.7098 19.8295 20.4697L14.6541 20.4694V14.6542ZM13.3822 20.4694H8.2067C7.65068 18.7095 7.32681 16.7299 7.27488 14.6539H13.3822V20.4694ZM13.3822 13.3824H7.27103C7.3271 11.3067 7.6471 9.32677 8.20285 7.5669H13.3783V13.3824H13.3822ZM13.3822 1.33164V6.29113L8.66679 6.29085C8.87464 5.79091 9.09866 5.31104 9.34668 4.86302C10.4707 2.83533 11.8823 1.60333 13.3822 1.33164ZM9.88679 1.96355C9.28279 2.59154 8.73093 3.35538 8.23491 4.24735C7.88283 4.88315 7.57093 5.56719 7.29895 6.29118H3.88721C5.40325 4.3112 7.48308 2.78738 9.88679 1.96355ZM3.0316 7.56667H6.87515C6.35122 9.35053 6.05132 11.3263 5.99911 13.3821H1.29181C1.39559 11.2663 2.01558 9.28661 3.0316 7.56667Z" fill="black"/>
</svg>
